<svg xmlns="http://www.w3.org/2000/svg" viewBox="0 0 512 512"><path d="M260.48 266.418c-5.177.077-10.323.09-15.48-.444-57.238-5.923-99.5-59.344-93.885-116.05 5.206-52.58 49.263-94.953 102.275-95.745l.416-.091c27.843-1.403 55.15 10.182 75.563 28.698 42.885 38.897 43.557 107.62 5.15 149.762-18.99 20.834-46.045 32.566-74.039 33.87ZM295.933 426.902l-198.787-.017c-9.048-.009-17.097.405-17.162-10.977-.439-76.424 62.344-137.076 137.747-137.313l54.305-.001c11.648.002 23.575-.516 35.187.352 63.814 4.77 114.095 53.785 124.487 115.956 1.123 6.714 5.896 30.924-5.793 31.766l-.403.02c-5.337.445-10.822.218-16.183.218l-113.398-.004Z" fill="#ffffff" class="fill-000000"></path></svg>