<svg data-name="Layer 1" viewBox="0 0 512 512" xmlns="http://www.w3.org/2000/svg"><path d="M481.42 91.45a5 5 0 0 0-5.07-2.79l-59.68 6.8-.05-.07-.08-.06 6.8-59.68a5 5 0 0 0-8.5-4.1L346 100.44a5 5 0 0 0-1.43 3l-7.33 64.33-17.38 17.38a171.26 171.26 0 0 0-117.87-46.91c-94.76 0-171.85 77.09-171.85 171.85s77.09 171.85 171.85 171.85 171.85-77.09 171.85-171.85a171.22 171.22 0 0 0-46.91-117.87l17.38-17.38 64.33-7.32a5 5 0 0 0 3-1.44l68.89-68.89a5 5 0 0 0 .89-5.74Zm-75.34 7.4-25.44 25.44 5.7-50.1 25.45-25.44Zm-51.83 7.43L375 85.54l-5.71 50.11-20.73 20.74Zm9.54 203.78c0 89.25-72.6 161.85-161.85 161.85S40.09 399.31 40.09 310.06s72.6-161.85 161.85-161.85a161.29 161.29 0 0 1 110.8 44L278 226.91a112.9 112.9 0 1 0 7.07 7.07l34.72-34.72a161.25 161.25 0 0 1 44 110.8Zm-169.45 7.6a5 5 0 0 0 7.07 0l35.87-35.87a45.37 45.37 0 1 1-7.07-7.07l-35.87 35.87a5 5 0 0 0 0 7.07Zm43-50.05a55.36 55.36 0 1 0 7.07 7.07L278 241.05a102.87 102.87 0 1 1-7-7.05Zm168.4-109.86-50.1 5.7 20.73-20.73 50.09-5.72Zm32.1-32.1-50.11 5.71 25.44-25.44 50.11-5.7Z" fill="#ffffff" class="fill-231f20"></path></svg>