<svg viewBox="0 0 64 64" xmlns="http://www.w3.org/2000/svg"><path d="M50.51 11.11a2.972 2.972 0 0 0-2.42-1.25H16.37c-.95 0-1.85.46-2.42 1.22L4.43 23.94c-.64.87-.56 2.06.19 2.83l25.95 26.77c.74.76 1.97.85 2.85 0l25.95-26.77c.74-.77.84-1.96.22-2.83l-9.08-12.83ZM40.07 26.35l-8.05 24-7.61-24h15.66Zm-15.21-2 7.37-11.62 7.4 11.62H24.86Zm9.19-12.49h13.39l-6.07 11.5-7.32-11.5Zm-10.93 11.5-6.1-11.5h13.39l-7.29 11.5Zm6.64 26.47L6.99 26.35h15.32l7.45 23.48Zm12.42-23.48H57l-22.67 23.4 7.85-23.4Zm.94-2 6.11-11.58 8.2 11.58H43.12Zm-27.9-11.62 6.17 11.62H6.62l8.6-11.62Z" fill="#ffffff" class="fill-000000"></path></svg>